<svg width="1920" height="1080" viewBox="0 0 508 285.75" xmlns="http://www.w3.org/2000/svg"><path d="M31.44 95.51h81.4v26.6h-81.4zM326.25 150.63h81.41v26.6h-81.41zM325.79 95.17h81.41v26.6H325.8z" stroke="#000" stroke-width=".08" fill="none"/><path d="M326.7 49.57h81.4v35.97h-81.4z" stroke="#000" stroke-width=".09" fill="none"/><g aria-label="Client" style="line-height:1.25" font-size="10.58" letter-spacing="0" stroke-width=".26"><path d="M60.47 106.1v1.1q-.53-.5-1.13-.73-.6-.25-1.27-.25-1.32 0-2.02.81t-.7 2.34q0 1.52.7 2.34.7.8 2.02.8.68 0 1.27-.24.6-.24 1.13-.73v1.09q-.55.37-1.17.55-.6.19-1.29.19-1.75 0-2.76-1.07-1-1.07-1-2.93t1-2.93q1.01-1.07 2.76-1.07.7 0 1.3.18.62.18 1.16.55zM62.04 105.18h.95v8.04h-.95zM64.98 107.43h.95v5.79h-.95zm0-2.25h.95v1.2h-.95zM72.87 110.09v.46H68.5q.06.99.59 1.5t1.47.51q.55 0 1.06-.13.52-.14 1.03-.4v.9q-.51.21-1.05.33-.54.11-1.1.11-1.38 0-2.19-.8-.8-.81-.8-2.19 0-1.42.76-2.25.77-.84 2.07-.84 1.17 0 1.85.76.68.75.68 2.04zm-.95-.28q-.01-.78-.44-1.25-.42-.46-1.13-.46-.8 0-1.27.45-.48.45-.55 1.26zM79.24 109.73v3.49h-.95v-3.46q0-.82-.32-1.23-.32-.41-.96-.41-.77 0-1.22.49-.44.5-.44 1.34v3.27h-.96v-5.79h.96v.9q.34-.52.8-.78.47-.26 1.07-.26 1 0 1.5.62.52.62.52 1.82zM82.08 105.79v1.64h1.96v.74h-1.96v3.14q0 .71.19.91.2.2.79.2h.98v.8h-.98q-1.1 0-1.52-.4-.42-.42-.42-1.5v-3.15h-.7v-.74h.7v-1.64z"/></g><g aria-label="REST API" style="line-height:1.25" font-size="10.58" letter-spacing="0" stroke-width=".26"><path d="M193.6 108.31q.33.11.64.49.32.37.64 1.02l1.06 2.1h-1.12l-.98-1.97q-.39-.78-.75-1.03t-.98-.25h-1.13v3.26h-1.05v-7.72h2.36q1.32 0 1.97.56.66.55.66 1.66 0 .73-.35 1.21-.33.48-.98.67zm-2.62-3.24v2.74h1.31q.75 0 1.14-.35.38-.35.38-1.03 0-.67-.38-1.01-.39-.35-1.14-.35zM197.29 104.21h4.88v.88h-3.84v2.29h3.68v.87h-3.68v2.8h3.93v.88h-4.97zM208.6 104.47v1.01q-.6-.28-1.12-.42-.53-.14-1.02-.14-.85 0-1.32.33-.46.33-.46.94 0 .51.3.78.32.26 1.18.42l.63.12q1.16.23 1.72.79.55.56.55 1.5 0 1.12-.75 1.7-.75.58-2.2.58-.55 0-1.17-.13-.61-.12-1.28-.36v-1.08q.64.36 1.25.54.61.18 1.2.18.9 0 1.38-.35.48-.35.48-1 0-.57-.35-.9-.34-.31-1.14-.47l-.63-.13q-1.17-.23-1.7-.73-.52-.5-.52-1.38 0-1.02.72-1.6.73-.6 2-.6.53 0 1.1.1.56.1 1.15.3zM209.62 104.21h6.53v.88h-2.74v6.84h-1.05v-6.84h-2.74zM223.1 105.24l-1.42 3.84h2.84zm-.59-1.03h1.18l2.94 7.72h-1.08l-.7-1.98h-3.48l-.7 1.98h-1.1zM228.8 105.07v2.9h1.32q.73 0 1.12-.38.4-.37.4-1.07 0-.7-.4-1.07-.4-.38-1.12-.38zm-1.04-.86h2.36q1.3 0 1.96.6.66.58.66 1.7 0 1.15-.66 1.73-.67.59-1.96.59h-1.32v3.1h-1.04zM234.14 104.21h1.05v7.72h-1.05z"/></g><g aria-label="Database" style="line-height:1.25" font-size="10.58" letter-spacing="0" stroke-width=".26"><path d="M341.77 161.07v6h1.26q1.6 0 2.34-.73.74-.72.74-2.28 0-1.55-.74-2.27t-2.34-.72zm-1.04-.86h2.14q2.25 0 3.3.93 1.04.93 1.04 2.92 0 2-1.05 2.93-1.05.93-3.29.93h-2.14zM351.47 165.01q-1.16 0-1.6.27-.44.26-.44.9 0 .5.33.8.33.3.9.3.8 0 1.27-.56.48-.56.48-1.5v-.2zm1.9-.39v3.3h-.96v-.87q-.32.52-.8.78-.5.24-1.2.24-.89 0-1.41-.5-.53-.5-.53-1.33 0-.98.66-1.47.65-.5 1.95-.5h1.33v-.1q0-.65-.43-1-.43-.37-1.21-.37-.5 0-.97.12t-.9.36v-.88q.52-.2 1.01-.3.5-.1.96-.1 1.25 0 1.87.65.62.65.62 1.97zM356.26 160.5v1.64h1.96v.74h-1.96v3.14q0 .7.2.9.19.2.78.2h.98v.8h-.98q-1.1 0-1.51-.4-.42-.42-.42-1.5v-3.14h-.7v-.74h.7v-1.65zM362.1 165.01q-1.15 0-1.6.27-.44.26-.44.9 0 .5.33.8.34.3.91.3.8 0 1.27-.56.48-.56.48-1.5v-.2zm1.9-.39v3.3h-.95v-.87q-.33.52-.81.78-.49.24-1.2.24-.88 0-1.4-.5-.53-.5-.53-1.33 0-.98.65-1.47.66-.5 1.95-.5h1.34v-.1q0-.65-.44-1-.43-.37-1.2-.37-.5 0-.97.12t-.9.36v-.88q.52-.2 1-.3.5-.1.96-.1 1.26 0 1.88.65.62.65.62 1.97zM370.11 165.04q0-1.05-.43-1.65-.43-.6-1.19-.6-.75 0-1.18.6-.43.6-.43 1.65 0 1.04.43 1.64.43.6 1.18.6.76 0 1.19-.6.43-.6.43-1.64zm-3.23-2.03q.3-.51.75-.76.46-.25 1.1-.25 1.05 0 1.7.83.67.84.67 2.2 0 1.37-.66 2.2-.66.84-1.71.84-.64 0-1.1-.24-.45-.26-.75-.77v.86h-.96v-8.04h.96zM375.3 165.01q-1.15 0-1.6.27-.44.26-.44.9 0 .5.33.8.34.3.91.3.8 0 1.27-.56.48-.56.48-1.5v-.2zm1.9-.39v3.3h-.95v-.87q-.32.52-.81.78-.49.24-1.19.24-.89 0-1.41-.5-.53-.5-.53-1.33 0-.98.65-1.47.66-.5 1.96-.5h1.33v-.1q0-.65-.43-1-.43-.37-1.21-.37-.5 0-.97.12t-.9.36v-.88q.52-.2 1.01-.3.5-.1.96-.1 1.25 0 1.87.65.62.65.62 1.97zM382.85 162.3v.9q-.4-.2-.84-.3-.43-.1-.9-.1-.7 0-1.06.2-.35.23-.35.66 0 .33.25.52t1.02.36l.32.07q1.02.22 1.44.62.43.39.43 1.1 0 .8-.64 1.27t-1.75.47q-.47 0-.97-.09t-1.06-.27v-.98q.52.27 1.04.41.5.14 1 .14.68 0 1.04-.23t.36-.65q0-.39-.26-.6-.26-.2-1.14-.4l-.33-.07q-.89-.19-1.28-.57-.4-.39-.4-1.06 0-.81.59-1.26.58-.44 1.64-.44.53 0 1 .07.46.08.85.24zM389.62 164.8v.46h-4.37q.06.98.6 1.5.52.5 1.47.5.55 0 1.06-.13.52-.13 1.02-.4v.9q-.5.22-1.05.33-.53.11-1.09.11-1.38 0-2.2-.8-.8-.8-.8-2.18 0-1.42.77-2.26.77-.83 2.07-.83 1.17 0 1.84.75.68.75.68 2.04zm-.95-.29q0-.78-.44-1.24-.42-.47-1.12-.47-.8 0-1.28.45-.47.45-.55 1.27z"/></g><g aria-label="Azure File Storage" style="line-height:1.25" font-size="10.58" letter-spacing="0" stroke-width=".26"><path d="M344.6 57.24l-1.42 3.84h2.84zm-.6-1.03h1.2l2.93 7.71h-1.08l-.7-1.98h-3.48l-.7 1.98h-1.1zM348.8 58.14h4.52V59l-3.58 4.16h3.58v.76h-4.65v-.86l3.58-4.16h-3.45zM354.67 61.64v-3.5h.95v3.46q0 .83.32 1.24.33.4.97.4.77 0 1.21-.48.45-.5.45-1.34v-3.28h.95v5.78h-.95v-.88q-.35.52-.8.78-.46.25-1.07.25-1 0-1.51-.62-.52-.62-.52-1.81zm2.4-3.64zM364.83 59.03q-.16-.1-.35-.14-.18-.05-.41-.05-.8 0-1.24.53-.43.52-.43 1.5v3.05h-.96v-5.78h.96v.9q.3-.53.78-.78.48-.26 1.17-.26l.21.01.27.04zM370.55 60.8v.46h-4.37q.06.98.59 1.5.53.5 1.47.5.55 0 1.06-.13.52-.13 1.03-.4v.9q-.52.22-1.05.33-.54.11-1.1.11-1.38 0-2.19-.8-.8-.8-.8-2.18 0-1.42.76-2.26.77-.83 2.07-.83 1.17 0 1.85.75.68.75.68 2.04zm-.95-.29q-.01-.78-.44-1.24-.43-.47-1.13-.47-.8 0-1.27.45-.48.45-.55 1.27zM375.51 56.2h4.44v.89h-3.4v2.27h3.07v.88h-3.06v3.68h-1.05zM380.8 58.14h.94v5.78h-.95zm0-2.26h.94v1.2h-.95zM383.73 55.88h.95v8.04h-.95zM391.62 60.8v.46h-4.37q.06.98.59 1.5.53.5 1.48.5.55 0 1.06-.13t1.02-.4v.9q-.51.22-1.05.33-.54.11-1.09.11-1.38 0-2.2-.8-.8-.8-.8-2.18 0-1.42.76-2.26.77-.83 2.08-.83 1.16 0 1.84.75.68.75.68 2.04zm-.95-.29q0-.78-.44-1.24-.42-.47-1.12-.47-.8 0-1.28.45t-.55 1.27zM346.64 69.7v1q-.6-.28-1.12-.41-.53-.14-1.02-.14-.85 0-1.31.33-.46.33-.46.94 0 .5.3.77.31.26 1.17.42l.63.13q1.17.22 1.72.79.56.55.56 1.5 0 1.12-.76 1.7-.75.57-2.2.57-.55 0-1.17-.12-.61-.13-1.27-.37v-1.07q.63.35 1.24.53.61.19 1.2.19.9 0 1.38-.36.49-.35.49-1 0-.57-.35-.89-.35-.32-1.15-.48l-.63-.12q-1.17-.23-1.7-.73-.51-.5-.51-1.38 0-1.02.72-1.61.72-.6 1.98-.6.55 0 1.11.1t1.15.3zM349.64 69.72v1.65h1.95v.73h-1.95v3.15q0 .7.19.9.2.2.79.2h.97v.8h-.97q-1.1 0-1.52-.4-.42-.42-.42-1.5V72.1h-.7v-.73h.7v-1.65zM355.09 72.03q-.77 0-1.21.6-.45.6-.45 1.63 0 1.04.44 1.64.45.6 1.22.6.76 0 1.2-.6.45-.6.45-1.64 0-1.02-.45-1.62-.44-.6-1.2-.6zm0-.8q1.24 0 1.95.8.7.8.7 2.23t-.7 2.24q-.71.8-1.95.8-1.25 0-1.96-.8-.7-.81-.7-2.24 0-1.42.7-2.23.71-.8 1.96-.8zM362.67 72.25q-.16-.09-.35-.13-.18-.05-.41-.05-.8 0-1.24.53-.43.52-.43 1.5v3.05h-.96v-5.78h.96v.9q.3-.53.78-.79.48-.25 1.17-.25l.21.01.27.04zM366.3 74.24q-1.15 0-1.6.27-.44.26-.44.9 0 .5.33.8.34.3.91.3.8 0 1.27-.56.48-.56.48-1.5v-.2zm1.9-.39v3.3h-.95v-.88q-.33.53-.81.78-.5.25-1.2.25-.88 0-1.4-.5-.53-.5-.53-1.33 0-.98.65-1.47.66-.5 1.95-.5h1.34v-.1q0-.65-.44-1-.43-.37-1.2-.37-.5 0-.97.12t-.9.36v-.88q.51-.2 1-.3.5-.1.96-.1 1.26 0 1.88.65.62.65.62 1.97zM373.96 74.2q0-1.04-.42-1.61-.43-.57-1.2-.57-.76 0-1.2.57-.42.57-.42 1.6 0 1.03.43 1.6.43.57 1.2.57.76 0 1.19-.57.42-.57.42-1.6zm.96 2.23q0 1.48-.66 2.2-.66.72-2.01.72-.5 0-.95-.07-.44-.08-.86-.23v-.93q.42.23.83.34.4.1.83.1.93 0 1.4-.48.46-.49.46-1.47v-.47q-.29.5-.75.76-.46.25-1.1.25-1.07 0-1.72-.8-.65-.82-.65-2.16 0-1.34.65-2.15.65-.81 1.72-.81.64 0 1.1.25.46.25.75.76v-.87h.96zM381.82 74.02v.47h-4.37q.06.98.6 1.5.52.5 1.47.5.55 0 1.06-.13.52-.13 1.02-.4v.9q-.5.22-1.05.33-.53.11-1.09.11-1.38 0-2.2-.8-.8-.8-.8-2.18 0-1.43.77-2.26.77-.83 2.07-.83 1.17 0 1.84.75.68.75.68 2.04zm-.95-.28q0-.78-.44-1.24-.42-.47-1.12-.47-.8 0-1.28.45-.47.45-.55 1.27z"/></g><g aria-label="Github" style="line-height:1.25" font-size="10.58" letter-spacing="0" stroke-width=".26"><path d="M353.65 110.97v-2.08h-1.7v-.85h2.74v3.3q-.61.44-1.34.66-.73.22-1.55.22-1.81 0-2.84-1.06-1.01-1.06-1.01-2.94 0-1.9 1.01-2.95 1.03-1.06 2.84-1.06.75 0 1.43.19.68.18 1.25.55v1.1q-.58-.48-1.23-.73t-1.37-.25q-1.41 0-2.12.8-.71.78-.71 2.35 0 1.56.7 2.35.72.79 2.13.79.56 0 1-.1.43-.1.77-.3zM356.55 106.28h.95v5.79h-.95zm0-2.25h.95v1.2h-.95zM360.43 104.64v1.64h1.96v.74h-1.96v3.14q0 .7.2.91.19.2.78.2h.98v.8h-.98q-1.1 0-1.52-.41-.41-.41-.41-1.5v-3.14h-.7v-.74h.7v-1.64zM368.45 108.57v3.5h-.95v-3.47q0-.82-.32-1.23-.32-.4-.96-.4-.77 0-1.22.49-.44.49-.44 1.34v3.27h-.96v-8.04h.96v3.15q.34-.52.8-.78.47-.26 1.07-.26 1 0 1.51.62.51.61.51 1.81zM370.25 109.78v-3.5h.95v3.47q0 .82.32 1.23.32.41.96.41.77 0 1.22-.5.45-.48.45-1.33v-3.28h.95v5.79h-.95v-.9q-.35.54-.81.8-.45.25-1.06.25-1 0-1.51-.62-.52-.62-.52-1.82zm2.4-3.64zM381.21 109.18q0-1.05-.43-1.65-.43-.6-1.19-.6-.75 0-1.19.6-.42.6-.42 1.65 0 1.05.42 1.65.44.6 1.2.6.75 0 1.18-.6.43-.6.43-1.65zm-3.23-2.02q.3-.52.75-.77.46-.25 1.1-.25 1.05 0 1.7.84.67.83.67 2.2 0 1.36-.66 2.2-.66.84-1.71.84-.64 0-1.1-.25-.45-.25-.75-.77v.87h-.96v-8.04h.96z"/></g><path d="M112.46 122.29a.06.06 0 01-.06.05.06.06 0 01-.05-.05.06.06 0 01.05-.06.06.06 0 01.06.06z" stroke="#000" stroke-width=".26"/><path d="M112.46 122.29a.06.06 0 01-.06.05.06.06 0 01-.05-.05.06.06 0 01.05-.06.06.06 0 01.06.06z" stroke="#000" stroke-width=".26"/><path d="M112.9 108.65h56.58z" fill="none" stroke="#000" stroke-width=".26"/><path d="M169.27 95.81h81.41v26.6h-81.41z" stroke="#000" stroke-width=".08" fill="none"/><path d="M250.78 107.05l75.47-43.57zM250.78 107.05l75.47 43.58zM250.78 107.05h75.34z" fill="none" stroke="#000" stroke-width=".26"/></svg>